<?xml version="1.0" encoding="UTF-8" standalone="no"?>
<svg
   xmlns:dc="http://purl.org/dc/elements/1.1/"
   xmlns:cc="http://creativecommons.org/ns#"
   xmlns:rdf="http://www.w3.org/1999/02/22-rdf-syntax-ns#"
   xmlns:svg="http://www.w3.org/2000/svg"
   xmlns="http://www.w3.org/2000/svg"
   xmlns:sodipodi="http://sodipodi.sourceforge.net/DTD/sodipodi-0.dtd"
   xmlns:inkscape="http://www.inkscape.org/namespaces/inkscape"
   version="1.1"
   id="Layer_1"
   x="0px"
   y="0px"
   width="1000"
   height="1000"
   viewBox="0 0 1000 999.99998"
   enable-background="new 0 0 371.914 57.671"
   xml:space="preserve"
   inkscape:version="0.91 r13725"
   sodipodi:docname="Mojang 2013 Symbol.svg"><metadata
   id="metadata4745"><rdf:RDF><cc:Work
       rdf:about=""><dc:format>image/svg+xml</dc:format><dc:type
         rdf:resource="http://purl.org/dc/dcmitype/StillImage" /><dc:title></dc:title></cc:Work></rdf:RDF></metadata><defs
   id="defs4743">
	
	
</defs><sodipodi:namedview
   pagecolor="#ffffff"
   bordercolor="#666666"
   borderopacity="1"
   objecttolerance="10"
   gridtolerance="10"
   guidetolerance="10"
   inkscape:pageopacity="0"
   inkscape:pageshadow="2"
   inkscape:window-width="1366"
   inkscape:window-height="705"
   id="namedview4741"
   showgrid="false"
   inkscape:zoom="0.29849848"
   inkscape:cx="436.84546"
   inkscape:cy="304.33561"
   inkscape:window-x="-8"
   inkscape:window-y="-8"
   inkscape:window-maximized="1"
   inkscape:current-layer="Layer_1" />
<g
   id="g4705"
   transform="matrix(17.435272,0,0,17.435272,0,-5.5095524)">
		<path
   style="fill:#db1f29"
   inkscape:connector-curvature="0"
   id="path4707"
   d="m 57.355,0.316 -11.93,0 -28.906,0 C 7.396,0.316 0,7.713 0,16.834 l 0,35.281 0,5.556 0,0 6.366,0 34.47,0 c 9.124,0 16.519,-7.396 16.519,-16.518 l 0,-33.773 0,-7.064 0,0 z" />
		<g
   id="g4709">
			<path
   style="fill:#ffffff"
   inkscape:connector-curvature="0"
   id="path4711"
   d="m 13.772,48.104 c -4.892,0 -4.892,-4.892 -4.892,-4.892 0,0 0,-19.571 0,-24.466 0,-4.893 4.892,-4.893 4.892,-4.893 0,0 4.893,0 9.786,0 4.894,0 9.786,4.893 9.786,4.893 0,0 4.894,0 0,0 0,-14.251 4.501,5.285 9.786,0 3.46,-3.459 4.893,17.125 4.893,17.125 L 43.13,33.427 c 0,0 0,-4.894 -7.339,-9.786 -9.104,-6.071 -19.572,-2.071 -19.572,7.338 0,19.196 31.804,12.233 31.804,12.233 0,0 0,4.892 -4.893,4.892 -4.892,0 -29.358,0 -29.358,0 z" />
			<path
   style="fill:#ffffff"
   inkscape:connector-curvature="0"
   id="path4713"
   d="m 38.238,13.854 c 0,-1.35 1.095,-7.34 2.445,-7.34 1.352,0 2.446,5.99 2.446,7.34 0,1.353 -1.095,2.447 -2.446,2.447 -1.35,0 -2.445,-1.094 -2.445,-2.447 z" />
		</g>
	</g>
</svg>